<svg id="Capa_1" enable-background="new 0 0 512 512" height="512" viewBox="0 0 512 512" width="512" xmlns="http://www.w3.org/2000/svg"><g><path d="m350.717 337.393h-99.27c-7.111 0-12.876-5.765-12.876-12.876v-14.73c0-7.111 5.765-12.876 12.876-12.876h99.27c7.111 0 12.876 5.765 12.876 12.876v14.73c0 7.112-5.765 12.876-12.876 12.876z" fill="#eab14d"/><path d="m350.717 296.912h-20.583c7.111 0 12.876 5.765 12.876 12.876v14.73c0 7.111-5.765 12.876-12.876 12.876h20.583c7.111 0 12.876-5.765 12.876-12.876v-14.73c0-7.112-5.765-12.876-12.876-12.876z" fill="#e49542"/><path d="m367.187 256.43h-99.27c-7.111 0-12.876-5.765-12.876-12.876v-14.73c0-7.111 5.765-12.876 12.876-12.876h99.27c7.111 0 12.876 5.765 12.876 12.876v14.73c0 7.111-5.765 12.876-12.876 12.876z" fill="#eab14d"/><path d="m367.187 215.948h-20.583c7.111 0 12.876 5.765 12.876 12.876v14.73c0 7.111-5.765 12.876-12.876 12.876h20.583c7.111 0 12.876-5.765 12.876-12.876v-14.73c0-7.111-5.765-12.876-12.876-12.876z" fill="#e49542"/><path d="m326.004 175.467h-99.27c-7.111 0-12.876-5.765-12.876-12.876v-14.73c0-7.111 5.765-12.876 12.876-12.876h99.27c7.111 0 12.876 5.765 12.876 12.876v14.73c-.001 7.111-5.765 12.876-12.876 12.876z" fill="#eab14d"/><path d="m326.003 134.985h-20.583c7.111 0 12.876 5.765 12.876 12.876v14.73c0 7.111-5.765 12.876-12.876 12.876h20.583c7.111 0 12.876-5.765 12.876-12.876v-14.73c0-7.111-5.764-12.876-12.876-12.876z" fill="#e49542"/><path d="m350.717 296.912h-99.27c-7.111 0-12.876-5.765-12.876-12.876v-14.73c0-7.111 5.765-12.876 12.876-12.876h99.27c7.111 0 12.876 5.765 12.876 12.876v14.73c0 7.111-5.765 12.876-12.876 12.876z" fill="#f6e266"/><path d="m350.717 256.43h-20.583c7.111 0 12.876 5.765 12.876 12.876v14.73c0 7.111-5.765 12.876-12.876 12.876h20.583c7.111 0 12.876-5.765 12.876-12.876v-14.73c0-7.111-5.765-12.876-12.876-12.876z" fill="#ecbe6b"/><path d="m350.717 215.948h-99.27c-7.111 0-12.876-5.765-12.876-12.876v-14.73c0-7.111 5.765-12.876 12.876-12.876h99.27c7.111 0 12.876 5.765 12.876 12.876v14.73c0 7.112-5.765 12.876-12.876 12.876z" fill="#f6e266"/><path d="m350.717 175.467h-20.583c7.111 0 12.876 5.765 12.876 12.876v14.73c0 7.111-5.765 12.876-12.876 12.876h20.583c7.111 0 12.876-5.765 12.876-12.876v-14.73c0-7.112-5.765-12.876-12.876-12.876z" fill="#ecbe6b"/><path d="m371.321 134.985h-99.27c-7.111 0-12.876-5.765-12.876-12.876v-14.73c0-7.111 5.765-12.876 12.876-12.876h99.27c7.111 0 12.876 5.765 12.876 12.876v14.73c-.001 7.111-5.765 12.876-12.876 12.876z" fill="#f6e266"/><path d="m371.321 94.503h-20.583c7.111 0 12.876 5.765 12.876 12.876v14.73c0 7.111-5.765 12.876-12.876 12.876h20.583c7.111 0 12.876-5.765 12.876-12.876v-14.73c-.001-7.111-5.765-12.876-12.876-12.876z" fill="#ecbe6b"/><path d="m173.408 373.321 13.512 3.898c110.196 31.792 228.98 7.228 317.528-65.663 9.686-7.973 10.12-22.656.922-31.187l-.418-.388c-9.38-8.701-23.268-10.103-34.098-3.514l-44.424 27.024c-44.974 27.358-99.785 33.296-149.574 16.205-20.55-7.054-24.435-34.435-6.658-46.927l46.202-32.469c8.713-6.123 10.953-18.077 5.048-26.94-4.484-6.73-12.638-10.02-20.538-8.287l-127.503 27.972-21.033 22.712v96.389z" fill="#f1d0a5"/><path d="m270.198 272.768 46.202-32.468c8.479-5.958 10.805-17.431 5.483-26.211-1.365 2.252-3.194 4.269-5.483 5.878l-46.202 32.467c-10.977 7.714-13.685 21.101-9.319 31.877 1.818-4.407 4.898-8.436 9.319-11.543z" fill="#f1b986"/><path d="m509.318 285.384c-1.217 2.162-2.824 4.156-4.87 5.84-75.167 61.876-172.122 88.921-267.117 76.234-24.907-3.327-43.502-24.591-43.502-49.719v-89.173l-20.422 4.48v119.942 20.333l13.512 3.898c2.294.662 4.594 1.29 6.895 1.904.005.001.01.003.014.004 108.231 28.83 223.918 3.8 310.619-67.57 7.982-6.57 9.665-17.687 4.871-26.173z" fill="#f1b986"/><path d="m114.197 413.907-102.897 3.583c-6.176.215-11.3-4.734-11.3-10.914v-203.973c0-6.18 5.124-11.128 11.3-10.913l102.897 3.582c5.88.205 10.54 5.03 10.54 10.913v196.808c0 5.884-4.661 10.71-10.54 10.914z" fill="#78c2a4"/><path d="m114.197 195.272-8.204-.286v219.206l8.204-.286c5.88-.204 10.54-5.03 10.54-10.913v-196.807c0-5.884-4.661-10.709-10.54-10.914z" fill="#66b394"/><path d="m124.737 398.206h37.115c6.382 0 11.556-5.174 11.556-11.556v-164.121c0-6.382-5.174-11.556-11.556-11.556h-37.115z" fill="#ecf4ff"/><path d="m161.852 210.973h-16.694c6.382 0 11.556 5.174 11.556 11.556v164.121c0 6.382-5.174 11.556-11.556 11.556h16.694c6.382 0 11.556-5.174 11.556-11.556v-164.121c0-6.382-5.174-11.556-11.556-11.556z" fill="#ddeafb"/><g><path d="m85.799 382.06c-4.268 0-7.726-3.459-7.726-7.726v-23.057c0-4.268 3.459-7.726 7.726-7.726 4.268 0 7.726 3.459 7.726 7.726v23.057c.001 4.267-3.458 7.726-7.726 7.726z" fill="#ecf4ff"/></g></g></svg>